<svg width="139" height="24" viewBox="0 0 139 24" fill="none" xmlns="http://www.w3.org/2000/svg">
    <path d="M26.3642 10.0601L20.4197 1.92311C19.9768 1.31494 19.2938 0.96875 18.5422 0.96875C17.7905 0.96875 17.1075 1.31494 16.6646 1.92311L16.0159 2.80885L15.3703 1.92311C14.9274 1.31494 14.2444 0.96875 13.4928 0.96875C12.7412 0.96875 12.0581 1.31494 11.6153 1.92311L10.9759 2.79638L10.3365 1.92311C9.89367 1.31494 9.20753 0.96875 8.45902 0.96875C7.7105 0.96875 7.02436 1.31494 6.58149 1.92311L0.6339 10.0601C-0.2113 11.2172 -0.2113 12.7735 0.6339 13.9337L6.58149 22.0707C7.02436 22.6757 7.70738 23.025 8.45902 23.025C9.21065 23.025 9.89367 22.6788 10.3365 22.0707L13.499 17.7386L14.1509 18.6337C14.154 18.6369 14.1571 18.64 14.1571 18.6431L16.6615 22.0707C17.1044 22.6757 17.7874 23.025 18.539 23.025C19.2907 23.025 19.9737 22.6788 20.4166 22.0707L26.361 13.9337C27.2125 12.7735 27.2125 11.2172 26.3642 10.0601ZM12.5634 2.61549C12.7817 2.31608 13.1216 2.14454 13.4928 2.14454C13.8639 2.14454 14.2039 2.31608 14.4222 2.61549L15.2892 3.80376L13.499 6.25203L11.7026 3.79128L12.5634 2.61549ZM9.38842 21.3752C9.17011 21.6746 8.83016 21.8461 8.45902 21.8461C8.08788 21.8461 7.74792 21.6746 7.52961 21.3752L1.58514 13.2382C1.04247 12.4959 1.04247 11.4948 1.58514 10.7525L7.52961 2.61549C7.74792 2.31608 8.08788 2.14454 8.45902 2.14454C8.83016 2.14454 9.17011 2.31608 9.38842 2.61549L10.2492 3.7944L5.67079 10.0601C4.82559 11.2172 4.82559 12.7735 5.67391 13.9337L6.02322 14.4046L9.09214 18.6306C9.48199 19.1671 10.0621 19.4977 10.7077 19.5694L9.38842 21.3752ZM11.8991 17.9414C11.6776 18.2408 11.3408 18.4123 10.9697 18.4123C10.5985 18.4123 10.2586 18.2408 10.0403 17.9414L6.88401 13.5937H6.88089L6.61579 13.2351C6.07312 12.4928 6.07312 11.4916 6.61579 10.7494L10.9728 4.78618L12.7692 7.24693L10.717 10.057C9.87184 11.2141 9.87184 12.7704 10.717 13.9306L12.7692 16.7406L11.8991 17.9414ZM13.499 8.24495L15.3329 10.7525C15.8756 11.4948 15.8756 12.4959 15.3329 13.2382L13.499 15.7457L11.6652 13.2382C11.1225 12.4959 11.1225 11.4948 11.6652 10.7525L13.499 8.24495ZM16.281 13.9306C17.1262 12.7735 17.1262 11.2172 16.281 10.057L14.2288 7.24693L16.019 4.79866L20.3667 10.7525C20.9093 11.4948 20.9093 12.4959 20.3635 13.2413L19.668 14.2081L16.9609 17.9382C16.7426 18.2376 16.4026 18.4092 16.0315 18.4092C15.6635 18.4092 15.3298 18.2408 15.1083 17.9476L14.2257 16.7406L16.281 13.9306ZM25.416 13.2382L19.4716 21.3752C19.2532 21.6746 18.9133 21.8461 18.5422 21.8461C18.171 21.8461 17.8311 21.6746 17.6127 21.3752L16.2935 19.5694C16.9391 19.4977 17.5192 19.1639 17.909 18.6275L20.2357 15.4245L20.2388 15.4276L20.6193 14.8974L21.0653 14.283L21.0622 14.2799L21.3148 13.9274C22.16 12.7704 22.16 11.2141 21.3148 10.0539L16.7457 3.80376L17.6127 2.61549C17.8311 2.31608 18.171 2.14454 18.5422 2.14454C18.9133 2.14454 19.2532 2.31608 19.4716 2.61549L25.416 10.7525C25.9587 11.4979 25.9587 12.4959 25.416 13.2382Z"
          fill="#6F6F6F"/>
    <path opacity="0.4"
          d="M10.9667 19.5843C10.8762 19.5843 10.7889 19.5781 10.6984 19.5687L9.42285 21.3277L10.3866 22.0076L12.7194 18.8046C12.2797 19.3036 11.6435 19.5843 10.9667 19.5843Z"
          fill="#6F6F6F"/>
    <path opacity="0.4"
          d="M16.0255 19.585C16.1159 19.585 16.2032 19.5787 16.2937 19.5694L17.5693 21.3284L16.6056 22.0083L14.2852 18.8084C14.7249 19.3074 15.3518 19.585 16.0255 19.585Z"
          fill="#6F6F6F"/>
    <path opacity="0.4" d="M12.7638 16.7344L13.5061 17.748L12.377 19.2637L11.6348 18.2782L12.7638 16.7344Z"
          fill="#6F6F6F"/>
    <path opacity="0.6" d="M10.2452 3.79102L10.9781 4.79528L8.33333 8.42558L7.41016 7.69578L10.2452 3.79102Z"
          fill="#6F6F6F"/>
    <path opacity="0.6" d="M12.7756 7.24811L13.496 8.25237L11.8118 10.5821L10.8887 9.8492L12.7756 7.24811Z"
          fill="#6F6F6F"/>
    <path opacity="0.6" d="M15.2881 3.80469L16.0147 4.80271L14.2277 7.24786L13.501 6.24984L15.2881 3.80469Z"
          fill="#6F6F6F"/>
    <path d="M47.8702 6.24609V16.424H45.774V9.9384L41.6058 16.424H39.2644L35.0962 9.96244V16.424H33V6.24609H35.0962L40.4279 14.6067L45.7788 6.24609H47.8702Z"
          fill="#6F6F6F"/>
    <path d="M78.1497 6.24609V16.424H76.0536V12.1932H68.5776V16.424H66.4814V6.24609H68.5776V10.448H76.0536V6.24609H78.1497Z"
          fill="#6F6F6F"/>
    <path d="M108.546 11.299C108.546 13.9961 106.955 16.4192 102.58 16.4192H96.7578V6.24609H102.58C107.162 6.24609 108.546 8.60186 108.546 11.299ZM106.412 11.299C106.412 9.57302 105.541 8.03456 102.532 8.03456H98.854V14.6259H102.532C105.541 14.6259 106.412 13.0249 106.412 11.299Z"
          fill="#6F6F6F"/>
    <path d="M125.369 11.3352C125.369 8.02749 127.735 6.03711 131.807 6.03711C135.874 6.03711 138.244 8.02269 138.244 11.3352C138.244 14.6477 135.874 16.6333 131.807 16.6333C127.735 16.6333 125.369 14.6429 125.369 11.3352ZM136.047 11.3352C136.047 8.97942 134.302 7.84961 131.802 7.84961C129.302 7.84961 127.509 8.97942 127.509 11.3352C127.509 13.6958 129.302 14.816 131.802 14.816C134.302 14.816 136.047 13.6958 136.047 11.3352Z"
          fill="#6F6F6F"/>
    <path d="M58.5959 6.85247C58.3652 6.29477 57.8123 5.90054 57.1632 5.90054C56.5142 5.90054 55.9613 6.29477 55.7305 6.84766L51.2354 16.4198H53.495L54.4998 14.2034H59.8171L60.8267 16.4198H63.1103L58.5959 6.85247ZM55.2979 12.4582L57.1584 8.35727L59.0286 12.4582H55.2979Z"
          fill="#6F6F6F"/>
    <path d="M88.7903 6.85231C88.5595 6.29462 88.0066 5.90039 87.3576 5.90039C86.7085 5.90039 86.1557 6.29462 85.9249 6.84751L81.4297 16.4196H83.6893L84.6941 14.2033H90.0114L91.021 16.4196H93.3047L88.7903 6.85231ZM85.497 12.4581L87.3576 8.35712L89.2278 12.4581H85.497Z"
          fill="#6F6F6F"/>
    <path d="M118.626 6.85231C118.395 6.29462 117.843 5.90039 117.194 5.90039C116.544 5.90039 115.992 6.29462 115.761 6.84751L111.266 16.4196H113.525L114.53 14.2033H119.847L120.857 16.4196H123.141L118.626 6.85231ZM115.328 12.4581L117.189 8.35712L119.059 12.4581H115.328Z"
          fill="#6F6F6F"/>
</svg>
